# xmcd
#
# Track frame offsets: 
#        150
#        9887
#        27837
#        44475
#        65512
#        83550
#        100500
#        113725
#        133700
#        149925
#        168650
#        182587
#
# Disc length: 2718 seconds
#
# Revision: 2
# Processed by: cddbd v1.5.2PL0 Copyright (c) Steve Scherf et al.
# Submitted via: ExactAudioCopy v0.99pb5
#
DISCID=9c0a9c0c
DTITLE=Dr. Feelgood - Blues Classics
DYEAR=1996
DGENRE=Blues
TTITLE0=You Got The Thing On Me
TTITLE1=Try To Forget, Good-by
TTITLE2=Pushing That Thing 
TTITLE3=Blues, Blues, Blues
TTITLE4=Boogie Time
TTITLE5=He Good Lookin
TTITLE6=Dr. Feelgood
TTITLE7=C. C. Rider
TTITLE8=Come On Down To My House
TTITLE9=Telephone Blues
TTITLE10=My Gal Jo
TTITLE11=Got You On My Mind
EXTD=
EXTT0=
EXTT1=
EXTT2=
EXTT3=
EXTT4=
EXTT5=
EXTT6=
EXTT7=
EXTT8=
EXTT9=
EXTT10=
EXTT11=
PLAYORDER=
